<svg xmlns="http://www.w3.org/2000/svg" viewBox="0 0 1200 630" width="1200" height="630">
  <defs>
    <radialGradient id="glow" cx="85%" cy="25%" r="60%">
      <stop offset="0%" stop-color="#FF7A3D" stop-opacity="0.35"/>
      <stop offset="100%" stop-color="#FF7A3D" stop-opacity="0"/>
    </radialGradient>
    <pattern id="grid" width="40" height="40" patternUnits="userSpaceOnUse">
      <path d="M 40 0 L 0 0 0 40" fill="none" stroke="#FFFFFF" stroke-opacity="0.04" stroke-width="1"/>
    </pattern>
  </defs>

  <rect width="1200" height="630" fill="#0F0D0A"/>
  <rect width="1200" height="630" fill="url(#grid)"/>
  <rect width="1200" height="630" fill="url(#glow)"/>

  <g transform="translate(80, 80)">
    <rect width="64" height="64" rx="14" fill="#17140F" stroke="#2A241B" stroke-width="1"/>
    <path d="M32 14c10 0 18 9 18 22 0 12-8 20-18 20s-18-8-18-20C14 23 22 14 32 14z" fill="#F5EFE6"/>
    <path d="M14 36 L22 32 L28 37 L34 31 L42 36 L50 34" stroke="#FF7A3D" stroke-width="3" fill="none" stroke-linecap="round" stroke-linejoin="round"/>
    <text x="84" y="42" font-family="JetBrains Mono, ui-monospace, monospace" font-size="20" fill="#F5EFE6" letter-spacing="2">HATCH</text>
  </g>

  <text x="80" y="330" font-family="Bricolage Grotesque, system-ui, sans-serif" font-size="88" font-weight="800" fill="#F5EFE6" letter-spacing="-2">
    Chaque PR éclot
  </text>
  <text x="80" y="430" font-family="Bricolage Grotesque, system-ui, sans-serif" font-size="88" font-weight="800" fill="#F5EFE6" letter-spacing="-2">
    en preview live<tspan fill="#FF7A3D">.</tspan>
  </text>

  <text x="80" y="500" font-family="Inter, system-ui, sans-serif" font-size="26" fill="#8A817A">
    L'outil open-source de PR preview environments.
  </text>

  <g transform="translate(80, 540)">
    <rect width="240" height="40" rx="20" fill="transparent" stroke="#2A241B" stroke-width="1"/>
    <text x="120" y="26" font-family="JetBrains Mono, monospace" font-size="13" fill="#F5EFE6" text-anchor="middle" letter-spacing="2">FREE &amp; OPEN SOURCE</text>
  </g>
</svg>
